<svg xmlns="http://www.w3.org/2000/svg" xmlns:xlink="http://www.w3.org/1999/xlink" xmlns:lucid="lucid" width="1443" height="709.98"><g transform="translate(1 60.98026315789474)" lucid:page-tab-id="k0X~k78nO0Kg"><path d="M0 360h420v262H0z" fill="#fff"/><path d="M0 360h420v40H0z" fill="#ccc"/><path d="M0 400h420v38H0z" fill="#fff"/><path d="M0 437h420v38H0z" fill="#fff"/><path d="M0 474h420v38H0z" fill="#fff"/><path d="M0 511h420v38H0z" fill="#fff"/><path d="M0 548h420v38H0z" fill="#fff"/><path d="M0 585h420v37H0z" fill="#fff"/><path d="M1 400h418H1zM0 360h420v262H0zM60 401v220zM239.2 401v220z" stroke="#282c33" stroke-width="2" fill="none"/><use xlink:href="#a" transform="matrix(1,0,0,1,10,360) translate(166.05935329861111 28.16460503472222)"/><use xlink:href="#b" transform="matrix(1,0,0,1,5,402.5) translate(10.292751736111114 24.16460503472222)"/><use xlink:href="#c" transform="matrix(1,0,0,1,65,402.5) translate(75.41069878472223 24.16460503472222)"/><use xlink:href="#d" transform="matrix(1,0,0,1,244.2109375,402.5) translate(37.70144314236112 24.16460503472222)"/><use xlink:href="#e" transform="matrix(1,0,0,1,65,439.5) translate(33.97395833333335 24.16460503472222)"/><use xlink:href="#f" transform="matrix(1,0,0,1,244.2109375,439.5) translate(57.0553927951389 24.16460503472222)"/><use xlink:href="#g" transform="matrix(1,0,0,1,65,476.5) translate(32.19308810763891 24.16460503472222)"/><use xlink:href="#f" transform="matrix(1,0,0,1,244.2109375,476.5) translate(57.0553927951389 24.16460503472222)"/><use xlink:href="#h" transform="matrix(1,0,0,1,65,513.5) translate(33.25065104166667 24.16460503472222)"/><use xlink:href="#f" transform="matrix(1,0,0,1,244.2109375,513.5) translate(57.0553927951389 24.16460503472222)"/><use xlink:href="#i" transform="matrix(1,0,0,1,65,550.5) translate(31.623209635416686 24.16460503472222)"/><use xlink:href="#f" transform="matrix(1,0,0,1,244.2109375,550.5) translate(57.0553927951389 24.16460503472222)"/><use xlink:href="#j" transform="matrix(1,0,0,1,65,587.5) translate(15.206325954861128 24.16460503472222)"/><use xlink:href="#k" transform="matrix(1,0,0,1,244.2109375,587.5) translate(56.20605468750001 24.16460503472222)"/><path d="M1040 284.37h360v336h-360z" fill="#fff"/><path d="M1040 284.37h360v40h-360z" fill="#ccc"/><path d="M1040 324.37h360v38h-360z" fill="#fff"/><path d="M1040 361.37h360v38h-360z" fill="#fff"/><path d="M1040 398.37h360v38h-360z" fill="#fff"/><path d="M1040 435.37h360v38h-360z" fill="#fff"/><path d="M1040 472.37h360v38h-360z" fill="#fff"/><path d="M1040 509.37h360v38h-360z" fill="#fff"/><path d="M1040 546.37h360v38h-360z" fill="#fff"/><path d="M1040 583.37h360v37h-360z" fill="#fff"/><path d="M1041 324.37h358-358zM1040 284.37h360v336h-360zM1100 325.37v294zM1249.2 325.37v294z" stroke="#282c33" stroke-width="2" fill="none"/><use xlink:href="#l" transform="matrix(1,0,0,1,1050,284.37420634920636) translate(136.63471137152777 28.16460503472222)"/><use xlink:href="#b" transform="matrix(1,0,0,1,1045,326.87420634920636) translate(10.292751736111114 24.16460503472222)"/><use xlink:href="#c" transform="matrix(1,0,0,1,1105,326.87420634920636) translate(60.41069878472223 24.16460503472222)"/><use xlink:href="#d" transform="matrix(1,0,0,1,1254.2109375,326.87420634920636) translate(22.70144314236112 24.16460503472222)"/><use xlink:href="#m" transform="matrix(1,0,0,1,1045,363.87420634920636) translate(10.835232204861114 24.16460503472222)"/><use xlink:href="#n" transform="matrix(1,0,0,1,1105,363.87420634920636) translate(28.229003906250014 24.16460503472222)"/><use xlink:href="#d" transform="matrix(1,0,0,1,1254.2109375,363.87420634920636) translate(22.70144314236112 24.16460503472222)"/><use xlink:href="#m" transform="matrix(1,0,0,1,1045,400.87420634920636) translate(10.835232204861114 24.16460503472222)"/><use xlink:href="#o" transform="matrix(1,0,0,1,1105,400.87420634920636) translate(22.557617187500014 24.16460503472222)"/><use xlink:href="#d" transform="matrix(1,0,0,1,1254.2109375,400.87420634920636) translate(22.70144314236112 24.16460503472222)"/><use xlink:href="#p" transform="matrix(1,0,0,1,1105,437.87420634920636) translate(50.6789279513889 24.16460503472222)"/><use xlink:href="#f" transform="matrix(1,0,0,1,1254.2109375,437.87420634920636) translate(42.0553927951389 24.16460503472222)"/><use xlink:href="#q" transform="matrix(1,0,0,1,1105,474.87420634920636) translate(39.36355251736112 24.16460503472222)"/><use xlink:href="#f" transform="matrix(1,0,0,1,1254.2109375,474.87420634920636) translate(42.0553927951389 24.16460503472222)"/><use xlink:href="#r" transform="matrix(1,0,0,1,1105,511.87420634920636) translate(3.784505208333357 24.16460503472222)"/><use xlink:href="#s" transform="matrix(1,0,0,1,1105,548.8742063492064) translate(11.658691406250021 24.16460503472222)"/><use xlink:href="#f" transform="matrix(1,0,0,1,1254.2109375,548.8742063492064) translate(42.0553927951389 24.16460503472222)"/><use xlink:href="#t" transform="matrix(1,0,0,1,1105,585.8742063492064) translate(4.200954861111114 24.16460503472222)"/><use xlink:href="#k" transform="matrix(1,0,0,1,1254.2109375,585.8742063492064) translate(41.20605468750001 24.16460503472222)"/><path d="M540 460h380v188H540z" fill="#fff"/><path d="M540 460h380v40H540z" fill="#ccc"/><path d="M540 500h380v38H540z" fill="#fff"/><path d="M540 537h380v38H540z" fill="#fff"/><path d="M540 574h380v38H540z" fill="#fff"/><path d="M540 611h380v37H540z" fill="#fff"/><path d="M541 500h378-378zM540 460h380v188H540zM600 501v146zM759.2 501v146z" stroke="#282c33" stroke-width="2" fill="none"/><use xlink:href="#u" transform="matrix(1,0,0,1,550,460) translate(140.27837456597223 28.16460503472222)"/><use xlink:href="#b" transform="matrix(1,0,0,1,545,502.5) translate(10.292751736111114 24.16460503472222)"/><use xlink:href="#c" transform="matrix(1,0,0,1,605,502.5) translate(65.41069878472223 24.16460503472222)"/><use xlink:href="#d" transform="matrix(1,0,0,1,764.2109375,502.5) translate(27.70144314236112 24.16460503472222)"/><use xlink:href="#m" transform="matrix(1,0,0,1,545,539.5) translate(10.835232204861114 24.16460503472222)"/><use xlink:href="#n" transform="matrix(1,0,0,1,605,539.5) translate(33.229003906250014 24.16460503472222)"/><use xlink:href="#d" transform="matrix(1,0,0,1,764.2109375,539.5) translate(27.70144314236112 24.16460503472222)"/><use xlink:href="#p" transform="matrix(1,0,0,1,605,576.5) translate(55.6789279513889 24.16460503472222)"/><use xlink:href="#f" transform="matrix(1,0,0,1,764.2109375,576.5) translate(47.0553927951389 24.16460503472222)"/><use xlink:href="#t" transform="matrix(1,0,0,1,605,613.5) translate(9.200954861111114 24.16460503472222)"/><use xlink:href="#k" transform="matrix(1,0,0,1,764.2109375,613.5) translate(46.20605468750001 24.16460503472222)"/><path d="M550-59.98h380v151H550z" fill="#fff"/><path d="M550-59.98h380v40H550z" fill="#ccc"/><path d="M550-19.98h380v38H550z" fill="#fff"/><path d="M550 17.02h380v38H550z" fill="#fff"/><path d="M550 54.02h380v37H550z" fill="#fff"/><path d="M551-19.98h378-378zM550-59.98h380v151H550zM610-18.98v109zM769.2-18.98v109z" stroke="#282c33" stroke-width="2" fill="none"/><use xlink:href="#v" transform="matrix(1,0,0,1,559.9999999999999,-59.98026315789474) translate(136.7714301215278 28.16460503472222)"/><use xlink:href="#b" transform="matrix(1,0,0,1,554.9999999999999,-17.48026315789474) translate(10.292751736111114 24.16460503472222)"/><use xlink:href="#c" transform="matrix(1,0,0,1,614.9999999999999,-17.48026315789474) translate(65.41069878472223 24.16460503472222)"/><use xlink:href="#d" transform="matrix(1,0,0,1,774.2109374999999,-17.48026315789474) translate(27.70144314236112 24.16460503472222)"/><use xlink:href="#m" transform="matrix(1,0,0,1,554.9999999999999,19.51973684210526) translate(10.835232204861114 24.16460503472222)"/><use xlink:href="#w" transform="matrix(1,0,0,1,614.9999999999999,19.51973684210526) translate(21.05333116319447 24.16460503472222)"/><use xlink:href="#d" transform="matrix(1,0,0,1,774.2109374999999,19.51973684210526) translate(27.70144314236112 24.16460503472222)"/><use xlink:href="#p" transform="matrix(1,0,0,1,614.9999999999999,56.51973684210526) translate(55.6789279513889 24.16460503472222)"/><use xlink:href="#f" transform="matrix(1,0,0,1,774.2109374999999,56.51973684210526) translate(47.0553927951389 24.16460503472222)"/><path d="M1040 40h360v114h-360z" fill="#fff"/><path d="M1040 40h360v40h-360z" fill="#ccc"/><path d="M1040 80h360v38h-360z" fill="#fff"/><path d="M1040 117h360v37h-360z" fill="#fff"/><path d="M1041 80h358-358zM1040 40h360v114h-360zM1117.6 81v72zM1249.2 81v72z" stroke="#282c33" stroke-width="2" fill="none"/><use xlink:href="#x" transform="matrix(1,0,0,1,1050,40) translate(99.21999782986113 28.16460503472222)"/><use xlink:href="#y" transform="matrix(1,0,0,1,1045,82.5) translate(1.895019531250007 24.16460503472222)"/><use xlink:href="#z" transform="matrix(1,0,0,1,1122.5999999999995,82.5) translate(8.7958441840278 24.16460503472222)"/><use xlink:href="#d" transform="matrix(1,0,0,1,1254.2109375,82.5) translate(22.70144314236112 24.16460503472222)"/><use xlink:href="#A" transform="matrix(1,0,0,1,1045,119.5) translate(3.275878906250007 24.16460503472222)"/><use xlink:href="#B" transform="matrix(1,0,0,1,1122.5999999999995,119.5) translate(19.74956597222223 24.16460503472222)"/><use xlink:href="#d" transform="matrix(1,0,0,1,1254.2109375,119.5) translate(22.70144314236112 24.16460503472222)"/><path d="M550 154h380v114H550z" fill="#fff"/><path d="M550 154h380v40H550z" fill="#ccc"/><path d="M550 194h380v38H550z" fill="#fff"/><path d="M550 231h380v37H550z" fill="#fff"/><path d="M551 194h378-378zM550 154h380v114H550zM632 195v72zM769.2 195v72z" stroke="#282c33" stroke-width="2" fill="none"/><use xlink:href="#C" transform="matrix(1,0,0,1,559.9999999999999,154) translate(118.25037977430557 28.16460503472222)"/><use xlink:href="#y" transform="matrix(1,0,0,1,554.9999999999999,196.5) translate(3.895019531250007 24.16460503472222)"/><use xlink:href="#w" transform="matrix(1,0,0,1,636.9999999999998,196.5) translate(10.053331163194471 24.16460503472222)"/><use xlink:href="#d" transform="matrix(1,0,0,1,774.2109374999999,196.5) translate(27.70144314236112 24.16460503472222)"/><use xlink:href="#y" transform="matrix(1,0,0,1,554.9999999999999,233.5) translate(3.895019531250007 24.16460503472222)"/><use xlink:href="#B" transform="matrix(1,0,0,1,636.9999999999998,233.5) translate(22.74956597222223 24.16460503472222)"/><use xlink:href="#d" transform="matrix(1,0,0,1,774.2109374999999,233.5) translate(27.70144314236112 24.16460503472222)"/><path d="M999 342.87h-2a12 12 0 0 1-12-12V261.5a12 12 0 0 0-12-12h-22" stroke="#3a414a" stroke-width="2" fill="none"/><path d="M1038.55 342.87h-20m20-10l-20 10m20 10l-20-10m-20 .1v-.1a10 10 0 0 1 10-10 10 10 0 0 1 10 10 10 10 0 0 1-10 10 10 10 0 0 1-10-10v-.1" stroke="#3a414a" stroke-width="2" fill="#fff"/><path d="M931 249.5h20m-10 10v-20m10 20v-20M1019 416.87h-27a12 12 0 0 0-12 12v77.63a12 12 0 0 1-12 12h-7M1039 416.87h-20m10-10v20m-10-20v20" stroke="#3a414a" stroke-width="2" fill="none"/><path d="M921.45 518.5h20m-20 10l20-10m-20-10l20 10m0 .1v-.1a10 10 0 0 1 10-10 10 10 0 0 1 10 10 10 10 0 0 1-10 10 10 10 0 0 1-10-10v-.1" stroke="#3a414a" stroke-width="2" fill="#fff"/><path d="M1019 98.5h-22a12 12 0 0 1-12-12V10.52a12 12 0 0 0-12-12h-2M1039 98.5h-20m10-10v20m-10-20v20" stroke="#3a414a" stroke-width="2" fill="none"/><path d="M931.45-1.48h20m-20 10l20-10m-20-10l20 10m0 .1v-.1a10 10 0 0 1 10-10 10 10 0 0 1 10 10 10 10 0 0 1-10 10 10 10 0 0 1-10-10v-.1" stroke="#3a414a" stroke-width="2" fill="#fff"/><path d="M1421 135.5h8a12 12 0 0 1 12 12v183.37a12 12 0 0 1-12 12h-8M1401 135.5h20m-10 10v-20m10 20v-20M1401.45 342.87h20m-20 10l20-10m-20-10l20 10m0 10v-20" stroke="#3a414a" stroke-width="2" fill="none"/><path d="M0 16.15h420v262H0z" fill="#fff"/><path d="M0 16.15h420v40H0z" fill="#ccc"/><path d="M0 56.15h420v38H0z" fill="#fff"/><path d="M0 93.15h420v38H0z" fill="#fff"/><path d="M0 130.15h420v38H0z" fill="#fff"/><path d="M0 167.15h420v38H0z" fill="#fff"/><path d="M0 204.15h420v38H0z" fill="#fff"/><path d="M0 241.15h420v37H0z" fill="#fff"/><path d="M1 56.15h418H1zM0 16.15h420v262H0zM60 57.15v220zM239.2 57.15v220z" stroke="#282c33" stroke-width="2" fill="none"/><use xlink:href="#D" transform="matrix(1,0,0,1,10,16.15357142857141) translate(151.58772786458334 28.16460503472222)"/><use xlink:href="#b" transform="matrix(1,0,0,1,5,58.65357142857141) translate(10.292751736111114 24.16460503472222)"/><use xlink:href="#c" transform="matrix(1,0,0,1,65,58.65357142857141) translate(75.41069878472223 24.16460503472222)"/><use xlink:href="#d" transform="matrix(1,0,0,1,244.2109375,58.65357142857141) translate(37.70144314236112 24.16460503472222)"/><use xlink:href="#e" transform="matrix(1,0,0,1,65,95.65357142857141) translate(33.97395833333335 24.16460503472222)"/><use xlink:href="#f" transform="matrix(1,0,0,1,244.2109375,95.65357142857141) translate(57.0553927951389 24.16460503472222)"/><use xlink:href="#g" transform="matrix(1,0,0,1,65,132.6535714285714) translate(32.19308810763891 24.16460503472222)"/><use xlink:href="#f" transform="matrix(1,0,0,1,244.2109375,132.6535714285714) translate(57.0553927951389 24.16460503472222)"/><use xlink:href="#h" transform="matrix(1,0,0,1,65,169.6535714285714) translate(33.25065104166667 24.16460503472222)"/><use xlink:href="#f" transform="matrix(1,0,0,1,244.2109375,169.6535714285714) translate(57.0553927951389 24.16460503472222)"/><use xlink:href="#i" transform="matrix(1,0,0,1,65,206.6535714285714) translate(31.623209635416686 24.16460503472222)"/><use xlink:href="#f" transform="matrix(1,0,0,1,244.2109375,206.6535714285714) translate(57.0553927951389 24.16460503472222)"/><use xlink:href="#j" transform="matrix(1,0,0,1,65,243.6535714285714) translate(15.206325954861128 24.16460503472222)"/><use xlink:href="#k" transform="matrix(1,0,0,1,244.2109375,243.6535714285714) translate(56.20605468750001 24.16460503472222)"/><path d="M441 36.15h43.68a.32.32 0 0 0 .32-.3.32.32 0 0 1 .32-.33H509M421 36.15h20m-10 10v-20m10 20v-20" stroke="#3a414a" stroke-width="2" fill="none"/><path d="M548.55 35.52h-20m20-10l-20 10m20 10l-20-10m-20 .1v-.1a10 10 0 0 1 10-10 10 10 0 0 1 10 10 10 10 0 0 1-10 10 10 10 0 0 1-10-10v-.1" stroke="#3a414a" stroke-width="2" fill="#fff"/><path d="M461 74.65h12a12 12 0 0 1 12 12V200.5a12 12 0 0 0 12 12h32" stroke="#3a414a" stroke-width="2" fill="none"/><path d="M421.45 74.65h20m-20 10l20-10m-20-10l20 10m0 .1v-.1a10 10 0 0 1 10-10 10 10 0 0 1 10 10 10 10 0 0 1-10 10 10 10 0 0 1-10-10v-.1" stroke="#3a414a" stroke-width="2" fill="#fff"/><path d="M549 212.5h-20m10-10v20m-10-20v20M441 380h288.94a.06.06 0 0 0 .06-.06.06.06 0 0 1 .06-.07H999M421 380h20m-10 10v-20m10 20v-20" stroke="#3a414a" stroke-width="2" fill="none"/><path d="M1038.55 379.87h-20m20-10l-20 10m20 10l-20-10m-20 .1v-.1a10 10 0 0 1 10-10 10 10 0 0 1 10 10 10 10 0 0 1-10 10 10 10 0 0 1-10-10v-.1" stroke="#3a414a" stroke-width="2" fill="#fff"/><path d="M441 418.5h27a12 12 0 0 1 12 12v113a12 12 0 0 0 12 12h7M421 418.5h20m-10 10v-20m10 20v-20" stroke="#3a414a" stroke-width="2" fill="none"/><path d="M538.55 555.5h-20m20-10l-20 10m20 10l-20-10m-20 .1v-.1a10 10 0 0 1 10-10 10 10 0 0 1 10 10 10 10 0 0 1-10 10 10 10 0 0 1-10-10v-.1" stroke="#3a414a" stroke-width="2" fill="#fff"/><defs><path fill="#282c33" d="M52 0l541-1490h220L1361 0h-200l-149-416H398L254 0H52zm404-582h497c-103-290-145-390-251-756-108 377-145 460-246 756" id="E"/><path fill="#282c33" d="M158 0v-1118h174v172h12c41-113 157-188 290-188 26 0 70 2 91 3v181c-11-2-60-10-108-10-161 0-279 109-279 260V0H158" id="F"/><path fill="#282c33" d="M598-1118v154H368v674c0 100 37 144 132 144 23 0 62-6 92-12L629-6c-37 13-88 20-134 20-193 0-307-107-307-290v-688H20v-154h168v-266h180v266h230" id="G"/><path fill="#282c33" d="M158 0v-1118h180V0H158zm91-1301c-68 0-125-53-125-119s57-119 125-119c69 0 126 53 126 119s-57 119-126 119" id="H"/><path fill="#282c33" d="M538 24C308 24 148-78 108-271l171-41c32 123 123 178 257 178 156 0 256-77 256-169 0-77-54-128-164-154l-186-44c-203-48-300-148-300-305 0-192 176-326 414-326 230 0 351 112 402 269l-163 42c-31-80-94-158-238-158-133 0-233 69-233 162 0 83 57 129 188 160l169 40c203 48 298 149 298 302 0 196-179 339-441 339" id="I"/><g id="a"><use transform="matrix(0.010959201388888886,0,0,0.010959201388888886,0,0)" xlink:href="#E"/><use transform="matrix(0.010959201388888886,0,0,0.010959201388888886,15.485351562499996,0)" xlink:href="#F"/><use transform="matrix(0.010959201388888886,0,0,0.010959201388888886,24.28559027777777,0)" xlink:href="#G"/><use transform="matrix(0.010959201388888886,0,0,0.010959201388888886,31.628255208333325,0)" xlink:href="#H"/><use transform="matrix(0.010959201388888886,0,0,0.010959201388888886,37.064019097222214,0)" xlink:href="#I"/><use transform="matrix(0.010959201388888886,0,0,0.010959201388888886,48.9109157986111,0)" xlink:href="#G"/><use transform="matrix(0.010959201388888886,0,0,0.010959201388888886,56.03439670138888,0)" xlink:href="#I"/></g><path fill="#282c33" d="M180 0v-1490h510c348 0 508 209 508 474 0 266-160 477-507 477H370V0H180zm190-706h312c236 0 327-133 327-310 0-176-91-307-329-307H370v617" id="J"/><path fill="#282c33" d="M180 0v-1490h190c0 262 1 526-3 784 217-279 467-523 702-784h249L716-845 1319 0h-225L585-716 370-489V0H180" id="K"/><g id="b"><use transform="matrix(0.010959201388888886,0,0,0.010959201388888886,0,0)" xlink:href="#J"/><use transform="matrix(0.010959201388888886,0,0,0.010959201388888886,14.334635416666663,0)" xlink:href="#K"/></g><path fill="#282c33" d="M577 24c-279 0-473-224-473-580 0-354 195-576 474-576 218 0 287 134 324 193h14v-551h180V0H922v-173h-20C865-111 790 24 577 24zm27-161c203 0 314-172 314-421 0-247-108-413-314-413-212 0-317 181-317 413 0 235 108 421 317 421" id="L"/><g id="c"><use transform="matrix(0.010959201388888886,0,0,0.010959201388888886,0,0)" xlink:href="#H"/><use transform="matrix(0.010959201388888886,0,0,0.010959201388888886,5.4357638888888875,0)" xlink:href="#L"/></g><path fill="#282c33" d="M370-1490V0H180v-1490h190" id="M"/><path fill="#282c33" d="M180 0v-1490h224l606 953c40 63 108 177 176 312-27-437-7-821-13-1265h190V0h-226C860-448 622-778 356-1262c27 476 11 792 15 1262H180" id="N"/><path fill="#282c33" d="M98-1322v-168h1126v168H757V0H567v-1322H98" id="O"/><path fill="#282c33" d="M180 0v-1490h908v168H370v486h669v168H370v500h727V0H180" id="P"/><path fill="#282c33" d="M789 20c-398 0-667-293-667-764 0-473 273-766 655-766 315 0 558 198 612 487h-196c-61-191-204-311-415-311-262 0-471 207-471 590 0 380 208 588 482 588 249 0 420-165 425-427H828v-166h572v163c0 370-256 606-611 606" id="Q"/><path fill="#282c33" d="M180 0v-1490h510c348 0 508 194 508 460 0 198-88 351-276 417L1256 0h-220L726-579c-117 2-238 0-356 1V0H180zm190-747h312c235 0 327-108 327-283 0-177-92-293-329-293H370v576" id="R"/><g id="d"><use transform="matrix(0.010959201388888886,0,0,0.010959201388888886,0,0)" xlink:href="#M"/><use transform="matrix(0.010959201388888886,0,0,0.010959201388888886,6.0275607638888875,0)" xlink:href="#N"/><use transform="matrix(0.010959201388888886,0,0,0.010959201388888886,22.937608506944436,0)" xlink:href="#O"/><use transform="matrix(0.010959201388888886,0,0,0.010959201388888886,37.42567274305554,0)" xlink:href="#P"/><use transform="matrix(0.010959201388888886,0,0,0.010959201388888886,50.916449652777764,0)" xlink:href="#Q"/><use transform="matrix(0.010959201388888886,0,0,0.010959201388888886,67.66210937499999,0)" xlink:href="#P"/><use transform="matrix(0.010959201388888886,0,0,0.010959201388888886,81.1528862847222,0)" xlink:href="#R"/></g><path fill="#282c33" d="M678-1118v154H420V0H240v-964H20v-154h220v-149c0-194 155-293 318-293 85 0 141 18 168 30l-50 154c-19-6-47-17-97-17-111 0-159 58-159 166v109h258" id="S"/><path fill="#282c33" d="M537 14c-226 0-379-139-379-422v-710h180v695c0 172 97 275 253 275 160 0 281-109 281-300v-670h181V0H879v-209C806-46 684 14 537 14" id="T"/><path fill="#282c33" d="M338-1490V0H158v-1490h180" id="U"/><path fill="#282c33" d="M934 0v166H0V0h934" id="V"/><path fill="#282c33" d="M338-670V0H158v-1118h173l1 207c72-158 192-221 342-221 226 0 378 139 378 422V0H872v-695c0-172-96-275-252-275-161 0-282 109-282 300" id="W"/><path fill="#282c33" d="M471 26C259 26 90-98 90-318c0-256 228-303 435-329 202-27 287-16 287-108 0-139-79-219-234-219-161 0-248 86-283 164l-173-57c86-203 278-265 451-265 150 0 419 46 419 395V0H815v-152h-12C765-73 660 26 471 26zm31-159c199 0 310-134 310-271v-155c-30 35-226 55-295 64-131 17-246 59-246 186 0 116 97 176 231 176" id="X"/><path fill="#282c33" d="M158 0v-1118h175l1 205c55-151 181-225 313-225 147 0 245 90 285 228 53-141 190-228 352-228 194 0 352 125 352 384V0h-181v-749c0-161-105-225-225-225-151 0-243 103-243 244V0H807v-767c0-124-93-207-219-207-131 0-250 92-250 270V0H158" id="Y"/><path fill="#282c33" d="M628 24c-324 0-524-230-524-574 0-343 198-582 503-582 237 0 487 146 487 559v75H286c9 234 145 362 343 362 132 0 231-58 273-172l174 48C1024-91 857 24 628 24zM287-650h624c-17-190-120-322-304-322-192 0-309 151-320 322" id="Z"/><g id="e"><use transform="matrix(0.010959201388888886,0,0,0.010959201388888886,0,0)" xlink:href="#S"/><use transform="matrix(0.010959201388888886,0,0,0.010959201388888886,8.307074652777775,0)" xlink:href="#T"/><use transform="matrix(0.010959201388888886,0,0,0.010959201388888886,21.578667534722214,0)" xlink:href="#U"/><use transform="matrix(0.010959201388888886,0,0,0.010959201388888886,27.0144314236111,0)" xlink:href="#U"/><use transform="matrix(0.010959201388888886,0,0,0.010959201388888886,32.450195312499986,0)" xlink:href="#V"/><use transform="matrix(0.010959201388888886,0,0,0.010959201388888886,43.44227430555554,0)" xlink:href="#W"/><use transform="matrix(0.010959201388888886,0,0,0.010959201388888886,56.702907986111086,0)" xlink:href="#X"/><use transform="matrix(0.010959201388888886,0,0,0.010959201388888886,69.30598958333331,0)" xlink:href="#Y"/><use transform="matrix(0.010959201388888886,0,0,0.010959201388888886,88.96679687499997,0)" xlink:href="#Z"/></g><path fill="#282c33" d="M57 0l534-763-501-727h220c122 187 296 416 391 605 94-191 272-419 396-605h215L811-770 1340 0h-219C986-204 811-426 699-640 588-430 407-202 273 0H57" id="aa"/><g id="f"><use transform="matrix(0.010959201388888886,0,0,0.010959201388888886,0,0)" xlink:href="#O"/><use transform="matrix(0.010959201388888886,0,0,0.010959201388888886,14.488064236111107,0)" xlink:href="#P"/><use transform="matrix(0.010959201388888886,0,0,0.010959201388888886,27.97884114583333,0)" xlink:href="#aa"/><use transform="matrix(0.010959201388888886,0,0,0.010959201388888886,42.4011501736111,0)" xlink:href="#O"/></g><g id="g"><use transform="matrix(0.010959201388888886,0,0,0.010959201388888886,0,0)" xlink:href="#T"/><use transform="matrix(0.010959201388888886,0,0,0.010959201388888886,13.271592881944441,0)" xlink:href="#I"/><use transform="matrix(0.010959201388888886,0,0,0.010959201388888886,25.11848958333333,0)" xlink:href="#Z"/><use transform="matrix(0.010959201388888886,0,0,0.010959201388888886,38.20377604166666,0)" xlink:href="#F"/><use transform="matrix(0.010959201388888886,0,0,0.010959201388888886,47.00401475694442,0)" xlink:href="#W"/><use transform="matrix(0.010959201388888886,0,0,0.010959201388888886,60.26464843749998,0)" xlink:href="#X"/><use transform="matrix(0.010959201388888886,0,0,0.010959201388888886,72.8677300347222,0)" xlink:href="#Y"/><use transform="matrix(0.010959201388888886,0,0,0.010959201388888886,92.52853732638884,0)" xlink:href="#Z"/></g><path fill="#282c33" d="M158 418v-1536h174v179h20c37-59 106-193 324-193 279 0 474 222 474 576 0 356-194 580-473 580-213 0-288-135-325-197h-14v591H158zm492-555c209 0 317-186 317-421 0-232-105-413-317-413-206 0-314 166-314 413 0 249 111 421 314 421" id="ab"/><path fill="#282c33" d="M409 0L70-1118h191c89 329 165 560 243 925 75-353 154-601 240-925h192c85 325 161 564 235 922 77-354 157-598 244-922h191L1267 0h-179c-86-307-176-590-250-913C763-588 675-308 588 0H409" id="ac"/><path fill="#282c33" d="M613 24c-304 0-509-231-509-576 0-350 205-580 509-580 305 0 511 230 511 580 0 345-206 576-511 576zm0-161c226 0 329-195 329-415 0-222-103-419-329-419-223 0-326 196-326 419 0 220 103 415 326 415" id="ad"/><g id="h"><use transform="matrix(0.010959201388888886,0,0,0.010959201388888886,0,0)" xlink:href="#ab"/><use transform="matrix(0.010959201388888886,0,0,0.010959201388888886,13.962022569444443,0)" xlink:href="#X"/><use transform="matrix(0.010959201388888886,0,0,0.010959201388888886,26.565104166666664,0)" xlink:href="#I"/><use transform="matrix(0.010959201388888886,0,0,0.010959201388888886,38.41200086805555,0)" xlink:href="#I"/><use transform="matrix(0.010959201388888886,0,0,0.010959201388888886,50.258897569444436,0)" xlink:href="#ac"/><use transform="matrix(0.010959201388888886,0,0,0.010959201388888886,68.22102864583333,0)" xlink:href="#ad"/><use transform="matrix(0.010959201388888886,0,0,0.010959201388888886,81.67892795138889,0)" xlink:href="#F"/><use transform="matrix(0.010959201388888886,0,0,0.010959201388888886,89.75585937499999,0)" xlink:href="#L"/></g><path fill="#282c33" d="M677 24c-213 0-288-135-325-197h-20V0H158v-1490h180v551h14c37-59 106-193 324-193 279 0 474 222 474 576 0 356-194 580-473 580zm-27-161c209 0 317-186 317-421 0-232-105-413-317-413-206 0-314 166-314 413 0 249 111 421 314 421" id="ae"/><path fill="#282c33" d="M611 442c-248 0-391-105-460-228l146-94c47 65 117 165 314 165 178 0 307-82 307-266v-224h-17C863-141 792-18 576-18c-268 0-472-195-472-546 0-346 197-568 476-568 216 0 288 133 326 193h17v-179h175V29c0 289-215 413-487 413zm-5-620c203 0 314-146 314-390 0-237-108-403-314-403-213 0-319 180-319 403 0 230 109 390 319 390" id="af"/><path fill="#282c33" d="M338-670V0H158v-1490h180v566c73-149 190-208 336-208 226 0 379 139 379 422V0H872v-695c0-172-96-275-252-275-161 0-282 109-282 300" id="ag"/><path fill="#282c33" d="M140 405l46-156c120 36 205 19 263-150l32-93L54-1118h197c107 313 237 620 324 950 87-331 219-637 326-950h196L606 167c-68 178-176 259-334 259-64 0-113-12-132-21" id="ah"/><g id="i"><use transform="matrix(0.010959201388888886,0,0,0.010959201388888886,0,0)" xlink:href="#ae"/><use transform="matrix(0.010959201388888886,0,0,0.010959201388888886,13.742838541666664,0)" xlink:href="#H"/><use transform="matrix(0.010959201388888886,0,0,0.010959201388888886,19.17860243055555,0)" xlink:href="#ad"/><use transform="matrix(0.010959201388888886,0,0,0.010959201388888886,32.6365017361111,0)" xlink:href="#af"/><use transform="matrix(0.010959201388888886,0,0,0.010959201388888886,46.40125868055554,0)" xlink:href="#F"/><use transform="matrix(0.010959201388888886,0,0,0.010959201388888886,54.85080295138888,0)" xlink:href="#X"/><use transform="matrix(0.010959201388888886,0,0,0.010959201388888886,67.45388454861109,0)" xlink:href="#ab"/><use transform="matrix(0.010959201388888886,0,0,0.010959201388888886,81.19672309027774,0)" xlink:href="#ag"/><use transform="matrix(0.010959201388888886,0,0,0.010959201388888886,94.13953993055551,0)" xlink:href="#ah"/></g><g id="j"><use transform="matrix(0.010959201388888886,0,0,0.010959201388888886,0,0)" xlink:href="#ab"/><use transform="matrix(0.010959201388888886,0,0,0.010959201388888886,13.742838541666664,0)" xlink:href="#F"/><use transform="matrix(0.010959201388888886,0,0,0.010959201388888886,21.819769965277775,0)" xlink:href="#ad"/><use transform="matrix(0.010959201388888886,0,0,0.010959201388888886,35.27766927083333,0)" xlink:href="#S"/><use transform="matrix(0.010959201388888886,0,0,0.010959201388888886,43.5847439236111,0)" xlink:href="#H"/><use transform="matrix(0.010959201388888886,0,0,0.010959201388888886,49.020507812499986,0)" xlink:href="#U"/><use transform="matrix(0.010959201388888886,0,0,0.010959201388888886,54.45627170138888,0)" xlink:href="#Z"/><use transform="matrix(0.010959201388888886,0,0,0.010959201388888886,67.5415581597222,0)" xlink:href="#V"/><use transform="matrix(0.010959201388888886,0,0,0.010959201388888886,78.53363715277774,0)" xlink:href="#ab"/><use transform="matrix(0.010959201388888886,0,0,0.010959201388888886,92.2764756944444,0)" xlink:href="#ag"/><use transform="matrix(0.010959201388888886,0,0,0.010959201388888886,105.54806857638884,0)" xlink:href="#ad"/><use transform="matrix(0.010959201388888886,0,0,0.010959201388888886,119.0059678819444,0)" xlink:href="#G"/><use transform="matrix(0.010959201388888886,0,0,0.010959201388888886,126.1294487847222,0)" xlink:href="#ad"/></g><path fill="#282c33" d="M180 0v-1490h528c311 0 458 177 458 395 0 191-114 278-244 313v14c139 9 302 137 302 371 0 225-148 397-499 397H180zm190-168h350c232 0 321-102 321-231 0-149-120-277-311-277H370v508zm0-668h328c160 0 286-101 286-255 0-129-87-231-280-231H370v486" id="ai"/><path fill="#282c33" d="M180 0v-1490h190v1322h690V0H180" id="aj"/><path fill="#282c33" d="M784 20c-382 0-662-292-662-764 0-473 280-766 662-766s660 293 660 766c0 472-278 764-660 764zm0-176c266 0 475-207 475-588 0-383-209-590-475-590-268 0-477 208-477 590 0 380 209 588 477 588" id="ak"/><g id="k"><use transform="matrix(0.010959201388888886,0,0,0.010959201388888886,0,0)" xlink:href="#ai"/><use transform="matrix(0.010959201388888886,0,0,0.010959201388888886,14.685329861111107,0)" xlink:href="#aj"/><use transform="matrix(0.010959201388888886,0,0,0.010959201388888886,26.740451388888882,0)" xlink:href="#ak"/><use transform="matrix(0.010959201388888886,0,0,0.010959201388888886,43.90256076388888,0)" xlink:href="#ai"/></g><path fill="#282c33" d="M657 26c-323 0-524-166-541-416h195c15 169 171 246 346 246 202 0 356-106 356-265 5-203-294-238-475-293-239-73-380-191-380-389 0-252 224-419 512-419 294 0 499 171 508 396H992c-17-145-151-228-328-228-193 0-321 102-321 242 0 156 175 211 284 241l149 41c160 44 422 134 422 412 0 244-197 432-541 432" id="al"/><g id="l"><use transform="matrix(0.010959201388888886,0,0,0.010959201388888886,0,0)" xlink:href="#al"/><use transform="matrix(0.010959201388888886,0,0,0.010959201388888886,14.400390624999996,0)" xlink:href="#ad"/><use transform="matrix(0.010959201388888886,0,0,0.010959201388888886,27.85828993055555,0)" xlink:href="#W"/><use transform="matrix(0.010959201388888886,0,0,0.010959201388888886,41.1189236111111,0)" xlink:href="#af"/><use transform="matrix(0.010959201388888886,0,0,0.010959201388888886,54.88368055555554,0)" xlink:href="#I"/></g><path fill="#282c33" d="M180 0v-1490h901v168H370v510h643v168H370V0H180" id="am"/><g id="m"><use transform="matrix(0.010959201388888886,0,0,0.010959201388888886,0,0)" xlink:href="#am"/><use transform="matrix(0.010959201388888886,0,0,0.010959201388888886,13.249674479166664,0)" xlink:href="#K"/></g><g id="n"><use transform="matrix(0.010959201388888886,0,0,0.010959201388888886,0,0)" xlink:href="#X"/><use transform="matrix(0.010959201388888886,0,0,0.010959201388888886,12.60308159722222,0)" xlink:href="#F"/><use transform="matrix(0.010959201388888886,0,0,0.010959201388888886,21.403320312499996,0)" xlink:href="#G"/><use transform="matrix(0.010959201388888886,0,0,0.010959201388888886,28.74598524305555,0)" xlink:href="#H"/><use transform="matrix(0.010959201388888886,0,0,0.010959201388888886,34.181749131944436,0)" xlink:href="#I"/><use transform="matrix(0.010959201388888886,0,0,0.010959201388888886,46.02864583333332,0)" xlink:href="#G"/><use transform="matrix(0.010959201388888886,0,0,0.010959201388888886,53.371310763888864,0)" xlink:href="#V"/><use transform="matrix(0.010959201388888886,0,0,0.010959201388888886,64.36338975694443,0)" xlink:href="#H"/><use transform="matrix(0.010959201388888886,0,0,0.010959201388888886,69.79915364583331,0)" xlink:href="#L"/></g><g id="o"><use transform="matrix(0.010959201388888886,0,0,0.010959201388888886,0,0)" xlink:href="#X"/><use transform="matrix(0.010959201388888886,0,0,0.010959201388888886,12.60308159722222,0)" xlink:href="#U"/><use transform="matrix(0.010959201388888886,0,0,0.010959201388888886,18.038845486111107,0)" xlink:href="#ae"/><use transform="matrix(0.010959201388888886,0,0,0.010959201388888886,31.78168402777777,0)" xlink:href="#T"/><use transform="matrix(0.010959201388888886,0,0,0.010959201388888886,45.053276909722214,0)" xlink:href="#Y"/><use transform="matrix(0.010959201388888886,0,0,0.010959201388888886,64.71408420138887,0)" xlink:href="#V"/><use transform="matrix(0.010959201388888886,0,0,0.010959201388888886,75.70616319444441,0)" xlink:href="#H"/><use transform="matrix(0.010959201388888886,0,0,0.010959201388888886,81.1419270833333,0)" xlink:href="#L"/></g><g id="p"><use transform="matrix(0.010959201388888886,0,0,0.010959201388888886,0,0)" xlink:href="#G"/><use transform="matrix(0.010959201388888886,0,0,0.010959201388888886,7.342664930555554,0)" xlink:href="#H"/><use transform="matrix(0.010959201388888886,0,0,0.010959201388888886,12.778428819444441,0)" xlink:href="#G"/><use transform="matrix(0.010959201388888886,0,0,0.010959201388888886,20.121093749999993,0)" xlink:href="#U"/><use transform="matrix(0.010959201388888886,0,0,0.010959201388888886,25.55685763888888,0)" xlink:href="#Z"/></g><g id="q"><use transform="matrix(0.010959201388888886,0,0,0.010959201388888886,0,0)" xlink:href="#af"/><use transform="matrix(0.010959201388888886,0,0,0.010959201388888886,13.764756944444441,0)" xlink:href="#Z"/><use transform="matrix(0.010959201388888886,0,0,0.010959201388888886,26.85004340277777,0)" xlink:href="#W"/><use transform="matrix(0.010959201388888886,0,0,0.010959201388888886,40.11067708333332,0)" xlink:href="#F"/><use transform="matrix(0.010959201388888886,0,0,0.010959201388888886,48.187608506944436,0)" xlink:href="#Z"/></g><g id="r"><use transform="matrix(0.010959201388888886,0,0,0.010959201388888886,0,0)" xlink:href="#F"/><use transform="matrix(0.010959201388888886,0,0,0.010959201388888886,8.07693142361111,0)" xlink:href="#Z"/><use transform="matrix(0.010959201388888886,0,0,0.010959201388888886,21.162217881944443,0)" xlink:href="#U"/><use transform="matrix(0.010959201388888886,0,0,0.010959201388888886,26.59798177083333,0)" xlink:href="#Z"/><use transform="matrix(0.010959201388888886,0,0,0.010959201388888886,39.902452256944436,0)" xlink:href="#X"/><use transform="matrix(0.010959201388888886,0,0,0.010959201388888886,52.50553385416666,0)" xlink:href="#I"/><use transform="matrix(0.010959201388888886,0,0,0.010959201388888886,64.35243055555554,0)" xlink:href="#Z"/><use transform="matrix(0.010959201388888886,0,0,0.010959201388888886,77.43771701388887,0)" xlink:href="#V"/><use transform="matrix(0.010959201388888886,0,0,0.010959201388888886,85.89822048611109,0)" xlink:href="#ah"/><use transform="matrix(0.010959201388888886,0,0,0.010959201388888886,98.07389322916664,0)" xlink:href="#Z"/><use transform="matrix(0.010959201388888886,0,0,0.010959201388888886,111.37836371527776,0)" xlink:href="#X"/><use transform="matrix(0.010959201388888886,0,0,0.010959201388888886,123.98144531249996,0)" xlink:href="#F"/></g><g id="s"><use transform="matrix(0.010959201388888886,0,0,0.010959201388888886,0,0)" xlink:href="#X"/><use transform="matrix(0.010959201388888886,0,0,0.010959201388888886,12.60308159722222,0)" xlink:href="#T"/><use transform="matrix(0.010959201388888886,0,0,0.010959201388888886,25.87467447916666,0)" xlink:href="#L"/><use transform="matrix(0.010959201388888886,0,0,0.010959201388888886,39.61751302083333,0)" xlink:href="#H"/><use transform="matrix(0.010959201388888886,0,0,0.010959201388888886,45.053276909722214,0)" xlink:href="#ad"/><use transform="matrix(0.010959201388888886,0,0,0.010959201388888886,58.511176215277764,0)" xlink:href="#V"/><use transform="matrix(0.010959201388888886,0,0,0.010959201388888886,69.50325520833331,0)" xlink:href="#ab"/><use transform="matrix(0.010959201388888886,0,0,0.010959201388888886,83.46527777777774,0)" xlink:href="#X"/><use transform="matrix(0.010959201388888886,0,0,0.010959201388888886,96.06835937499996,0)" xlink:href="#G"/><use transform="matrix(0.010959201388888886,0,0,0.010959201388888886,103.41102430555551,0)" xlink:href="#ag"/></g><path fill="#282c33" d="M613 24c-304 0-509-231-509-576 0-350 205-580 509-580 216 0 392 114 453 309l-173 49c-33-115-133-197-280-197-223 0-326 196-326 419 0 220 103 415 326 415 150 0 252-85 285-206l172 49C1010-95 832 24 613 24" id="an"/><path fill="#282c33" d="M481 0L54-1118h197c107 314 236 620 325 951 87-331 217-637 324-951h197L670 0H481" id="ao"/><g id="t"><use transform="matrix(0.010959201388888886,0,0,0.010959201388888886,0,0)" xlink:href="#an"/><use transform="matrix(0.010959201388888886,0,0,0.010959201388888886,12.822265624999996,0)" xlink:href="#ad"/><use transform="matrix(0.010959201388888886,0,0,0.010959201388888886,25.841796874999993,0)" xlink:href="#ao"/><use transform="matrix(0.010959201388888886,0,0,0.010959201388888886,38.01746961805554,0)" xlink:href="#Z"/><use transform="matrix(0.010959201388888886,0,0,0.010959201388888886,51.102756076388864,0)" xlink:href="#F"/><use transform="matrix(0.010959201388888886,0,0,0.010959201388888886,59.5523003472222,0)" xlink:href="#V"/><use transform="matrix(0.010959201388888886,0,0,0.010959201388888886,70.54437934027776,0)" xlink:href="#ab"/><use transform="matrix(0.010959201388888886,0,0,0.010959201388888886,84.28721788194443,0)" xlink:href="#ag"/><use transform="matrix(0.010959201388888886,0,0,0.010959201388888886,97.55881076388887,0)" xlink:href="#ad"/><use transform="matrix(0.010959201388888886,0,0,0.010959201388888886,111.01671006944441,0)" xlink:href="#G"/><use transform="matrix(0.010959201388888886,0,0,0.010959201388888886,118.14019097222221,0)" xlink:href="#ad"/></g><g id="u"><use transform="matrix(0.010959201388888886,0,0,0.010959201388888886,0,0)" xlink:href="#E"/><use transform="matrix(0.010959201388888886,0,0,0.010959201388888886,15.485351562499996,0)" xlink:href="#U"/><use transform="matrix(0.010959201388888886,0,0,0.010959201388888886,20.921115451388886,0)" xlink:href="#ae"/><use transform="matrix(0.010959201388888886,0,0,0.010959201388888886,34.66395399305555,0)" xlink:href="#T"/><use transform="matrix(0.010959201388888886,0,0,0.010959201388888886,47.935546874999986,0)" xlink:href="#Y"/><use transform="matrix(0.010959201388888886,0,0,0.010959201388888886,67.59635416666666,0)" xlink:href="#I"/></g><g id="v"><use transform="matrix(0.010959201388888886,0,0,0.010959201388888886,0,0)" xlink:href="#J"/><use transform="matrix(0.010959201388888886,0,0,0.010959201388888886,14.334635416666663,0)" xlink:href="#U"/><use transform="matrix(0.010959201388888886,0,0,0.010959201388888886,19.77039930555555,0)" xlink:href="#X"/><use transform="matrix(0.010959201388888886,0,0,0.010959201388888886,32.0447048611111,0)" xlink:href="#ah"/><use transform="matrix(0.010959201388888886,0,0,0.010959201388888886,44.76833767361109,0)" xlink:href="#U"/><use transform="matrix(0.010959201388888886,0,0,0.010959201388888886,50.20410156249998,0)" xlink:href="#H"/><use transform="matrix(0.010959201388888886,0,0,0.010959201388888886,55.639865451388864,0)" xlink:href="#I"/><use transform="matrix(0.010959201388888886,0,0,0.010959201388888886,67.48676215277774,0)" xlink:href="#G"/><use transform="matrix(0.010959201388888886,0,0,0.010959201388888886,74.61024305555553,0)" xlink:href="#I"/></g><g id="w"><use transform="matrix(0.010959201388888886,0,0,0.010959201388888886,0,0)" xlink:href="#U"/><use transform="matrix(0.010959201388888886,0,0,0.010959201388888886,5.4357638888888875,0)" xlink:href="#H"/><use transform="matrix(0.010959201388888886,0,0,0.010959201388888886,10.871527777777775,0)" xlink:href="#I"/><use transform="matrix(0.010959201388888886,0,0,0.010959201388888886,22.71842447916666,0)" xlink:href="#G"/><use transform="matrix(0.010959201388888886,0,0,0.010959201388888886,29.84190538194444,0)" xlink:href="#Z"/><use transform="matrix(0.010959201388888886,0,0,0.010959201388888886,42.927191840277764,0)" xlink:href="#W"/><use transform="matrix(0.010959201388888886,0,0,0.010959201388888886,56.18782552083331,0)" xlink:href="#Z"/><use transform="matrix(0.010959201388888886,0,0,0.010959201388888886,69.27311197916664,0)" xlink:href="#F"/><use transform="matrix(0.010959201388888886,0,0,0.010959201388888886,77.72265624999997,0)" xlink:href="#V"/><use transform="matrix(0.010959201388888886,0,0,0.010959201388888886,88.71473524305551,0)" xlink:href="#H"/><use transform="matrix(0.010959201388888886,0,0,0.010959201388888886,94.1504991319444,0)" xlink:href="#L"/></g><g id="x"><use transform="matrix(0.010959201388888886,0,0,0.010959201388888886,0,0)" xlink:href="#J"/><use transform="matrix(0.010959201388888886,0,0,0.010959201388888886,14.334635416666663,0)" xlink:href="#U"/><use transform="matrix(0.010959201388888886,0,0,0.010959201388888886,19.77039930555555,0)" xlink:href="#X"/><use transform="matrix(0.010959201388888886,0,0,0.010959201388888886,32.0447048611111,0)" xlink:href="#ah"/><use transform="matrix(0.010959201388888886,0,0,0.010959201388888886,44.76833767361109,0)" xlink:href="#U"/><use transform="matrix(0.010959201388888886,0,0,0.010959201388888886,50.20410156249998,0)" xlink:href="#H"/><use transform="matrix(0.010959201388888886,0,0,0.010959201388888886,55.639865451388864,0)" xlink:href="#I"/><use transform="matrix(0.010959201388888886,0,0,0.010959201388888886,67.48676215277774,0)" xlink:href="#G"/><use transform="matrix(0.010959201388888886,0,0,0.010959201388888886,74.8294270833333,0)" xlink:href="#al"/><use transform="matrix(0.010959201388888886,0,0,0.010959201388888886,89.2298177083333,0)" xlink:href="#ad"/><use transform="matrix(0.010959201388888886,0,0,0.010959201388888886,102.68771701388887,0)" xlink:href="#W"/><use transform="matrix(0.010959201388888886,0,0,0.010959201388888886,115.94835069444441,0)" xlink:href="#af"/><use transform="matrix(0.010959201388888886,0,0,0.010959201388888886,129.71310763888886,0)" xlink:href="#I"/></g><path fill="#282c33" d="M128 359l88-567h206L266 359H128" id="ap"/><g id="y"><use transform="matrix(0.010959201388888886,0,0,0.010959201388888886,0,0)" xlink:href="#J"/><use transform="matrix(0.010959201388888886,0,0,0.010959201388888886,14.334635416666663,0)" xlink:href="#K"/><use transform="matrix(0.010959201388888886,0,0,0.010959201388888886,29.41449652777777,0)" xlink:href="#ap"/><use transform="matrix(0.010959201388888886,0,0,0.010959201388888886,35.880425347222214,0)" xlink:href="#am"/><use transform="matrix(0.010959201388888886,0,0,0.010959201388888886,49.13009982638888,0)" xlink:href="#K"/></g><g id="z"><use transform="matrix(0.010959201388888886,0,0,0.010959201388888886,0,0)" xlink:href="#ab"/><use transform="matrix(0.010959201388888886,0,0,0.010959201388888886,13.742838541666664,0)" xlink:href="#U"/><use transform="matrix(0.010959201388888886,0,0,0.010959201388888886,19.17860243055555,0)" xlink:href="#X"/><use transform="matrix(0.010959201388888886,0,0,0.010959201388888886,31.4529079861111,0)" xlink:href="#ah"/><use transform="matrix(0.010959201388888886,0,0,0.010959201388888886,44.1765407986111,0)" xlink:href="#U"/><use transform="matrix(0.010959201388888886,0,0,0.010959201388888886,49.612304687499986,0)" xlink:href="#H"/><use transform="matrix(0.010959201388888886,0,0,0.010959201388888886,55.04806857638888,0)" xlink:href="#I"/><use transform="matrix(0.010959201388888886,0,0,0.010959201388888886,66.89496527777776,0)" xlink:href="#G"/><use transform="matrix(0.010959201388888886,0,0,0.010959201388888886,74.23763020833331,0)" xlink:href="#V"/><use transform="matrix(0.010959201388888886,0,0,0.010959201388888886,85.22970920138886,0)" xlink:href="#H"/><use transform="matrix(0.010959201388888886,0,0,0.010959201388888886,90.66547309027774,0)" xlink:href="#L"/></g><path fill="#282c33" d="M158 0v-1490h180v865h22l478-493h223L593-638 1096 0H865L456-523 338-412V0H158" id="aq"/><g id="A"><use transform="matrix(0.010959201388888886,0,0,0.010959201388888886,0,0)" xlink:href="#J"/><use transform="matrix(0.010959201388888886,0,0,0.010959201388888886,14.334635416666663,0)" xlink:href="#aq"/><use transform="matrix(0.010959201388888886,0,0,0.010959201388888886,26.65277777777777,0)" xlink:href="#ap"/><use transform="matrix(0.010959201388888886,0,0,0.010959201388888886,33.118706597222214,0)" xlink:href="#am"/><use transform="matrix(0.010959201388888886,0,0,0.010959201388888886,46.36838107638888,0)" xlink:href="#K"/></g><g id="B"><use transform="matrix(0.010959201388888886,0,0,0.010959201388888886,0,0)" xlink:href="#I"/><use transform="matrix(0.010959201388888886,0,0,0.010959201388888886,11.846896701388886,0)" xlink:href="#ad"/><use transform="matrix(0.010959201388888886,0,0,0.010959201388888886,25.304796006944432,0)" xlink:href="#W"/><use transform="matrix(0.010959201388888886,0,0,0.010959201388888886,38.565429687499986,0)" xlink:href="#af"/><use transform="matrix(0.010959201388888886,0,0,0.010959201388888886,52.330186631944436,0)" xlink:href="#V"/><use transform="matrix(0.010959201388888886,0,0,0.010959201388888886,63.322265624999986,0)" xlink:href="#H"/><use transform="matrix(0.010959201388888886,0,0,0.010959201388888886,68.75802951388887,0)" xlink:href="#L"/></g><g id="C"><use transform="matrix(0.010959201388888886,0,0,0.010959201388888886,0,0)" xlink:href="#aj"/><use transform="matrix(0.010959201388888886,0,0,0.010959201388888886,12.69075520833333,0)" xlink:href="#H"/><use transform="matrix(0.010959201388888886,0,0,0.010959201388888886,18.126519097222218,0)" xlink:href="#aq"/><use transform="matrix(0.010959201388888886,0,0,0.010959201388888886,29.94053819444444,0)" xlink:href="#Z"/><use transform="matrix(0.010959201388888886,0,0,0.010959201388888886,43.025824652777764,0)" xlink:href="#L"/><use transform="matrix(0.010959201388888886,0,0,0.010959201388888886,56.76866319444443,0)" xlink:href="#al"/><use transform="matrix(0.010959201388888886,0,0,0.010959201388888886,71.16905381944443,0)" xlink:href="#ad"/><use transform="matrix(0.010959201388888886,0,0,0.010959201388888886,84.62695312499999,0)" xlink:href="#W"/><use transform="matrix(0.010959201388888886,0,0,0.010959201388888886,97.88758680555553,0)" xlink:href="#af"/><use transform="matrix(0.010959201388888886,0,0,0.010959201388888886,111.65234375,0)" xlink:href="#I"/></g><g id="D"><use transform="matrix(0.010959201388888886,0,0,0.010959201388888886,0,0)" xlink:href="#aj"/><use transform="matrix(0.010959201388888886,0,0,0.010959201388888886,12.69075520833333,0)" xlink:href="#H"/><use transform="matrix(0.010959201388888886,0,0,0.010959201388888886,18.126519097222218,0)" xlink:href="#I"/><use transform="matrix(0.010959201388888886,0,0,0.010959201388888886,29.973415798611104,0)" xlink:href="#G"/><use transform="matrix(0.010959201388888886,0,0,0.010959201388888886,37.09689670138888,0)" xlink:href="#Z"/><use transform="matrix(0.010959201388888886,0,0,0.010959201388888886,50.18218315972221,0)" xlink:href="#W"/><use transform="matrix(0.010959201388888886,0,0,0.010959201388888886,63.44281684027775,0)" xlink:href="#Z"/><use transform="matrix(0.010959201388888886,0,0,0.010959201388888886,76.52810329861109,0)" xlink:href="#F"/><use transform="matrix(0.010959201388888886,0,0,0.010959201388888886,84.97764756944441,0)" xlink:href="#I"/></g></defs></g></svg>